<svg xmlns="http://www.w3.org/2000/svg" 
    viewBox="0 0 20 20" fill="none"
> 
    <path d="M2.5 16.6666C2.5 17.1086 2.67559 17.5325 2.98816 17.8451C3.30072 18.1577 3.72464 18.3333 4.16667 18.3333H12.5C12.7641 18.3339 13.0257 18.2822 13.2697 18.1813C13.5137 18.0803 13.7353 17.932 13.9217 17.7449L16.9117 14.7549C17.0987 14.5685 17.247 14.3469 17.348 14.1029C17.449 13.8589 17.5006 13.5973 17.5 13.3333V4.99992C17.5 4.55789 17.3244 4.13397 17.0118 3.82141C16.6993 3.50885 16.2754 3.33325 15.8333 3.33325H4.16667C3.72464 3.33325 3.30072 3.50885 2.98816 3.82141C2.67559 4.13397 2.5 4.55789 2.5 4.99992V16.6666Z" stroke="currentColor" stroke-width="1.66667" stroke-linecap="round" stroke-linejoin="round"/> 
    <path d="M12.5 18.3333V14.1666C12.5 13.9456 12.5878 13.7336 12.7441 13.5773C12.9004 13.421 13.1123 13.3333 13.3333 13.3333H17.5" stroke="currentColor" stroke-width="1.66667" stroke-linecap="round" stroke-linejoin="round"/> <path d="M6.6665 1.66675V5.00008" stroke="currentColor" stroke-width="1.66667" stroke-linecap="round" stroke-linejoin="round"/> <path d="M13.3335 1.66675V5.00008" stroke="currentColor" stroke-width="1.66667" stroke-linecap="round" stroke-linejoin="round"/> 
    <path d="M2.5 8.33325H17.5" stroke="currentColor" stroke-width="1.66667" stroke-linecap="round" stroke-linejoin="round"/> 
</svg>