<svg
    xmlns="http://www.w3.org/2000/svg"
    viewBox="0 0 24 24"
    fill="none"
  >
    <path d="M13.3327 13.9999V8.66659C13.3327 8.31296 13.1922 7.97382 12.9422 7.72378C12.6921 7.47373 12.353 7.33325 11.9993 7.33325H3.99935C3.64573 7.33325 3.30659 7.47373 3.05654 7.72378C2.80649 7.97382 2.66602 8.31296 2.66602 8.66659V13.9999" stroke="#4A5565" stroke-width="1.33333" stroke-linecap="round" stroke-linejoin="round"/>
    <path d="M2.66602 10.6667C2.66602 10.6667 2.99935 10 3.99935 10C4.99935 10 5.66602 11.3333 6.66602 11.3333C7.66602 11.3333 8.33268 10 9.33268 10C10.3327 10 10.9993 11.3333 11.9993 11.3333C12.9993 11.3333 13.3327 10.6667 13.3327 10.6667" stroke="#4A5565" stroke-width="1.33333" stroke-linecap="round" stroke-linejoin="round"/>
    <path d="M1.33398 14H14.6673" stroke="#4A5565" stroke-width="1.33333" stroke-linecap="round" stroke-linejoin="round"/>
    <path d="M4.66602 5.33325V7.33325" stroke="#4A5565" stroke-width="1.33333" stroke-linecap="round" stroke-linejoin="round"/>
    <path d="M8 5.33325V7.33325" stroke="#4A5565" stroke-width="1.33333" stroke-linecap="round" stroke-linejoin="round"/>
    <path d="M11.334 5.33325V7.33325" stroke="#4A5565" stroke-width="1.33333" stroke-linecap="round" stroke-linejoin="round"/>
    <path d="M4.66602 2.66675H4.67268" stroke="#4A5565" stroke-width="1.33333" stroke-linecap="round" stroke-linejoin="round"/>
    <path d="M8 2.66675H8.00667" stroke="#4A5565" stroke-width="1.33333" stroke-linecap="round" stroke-linejoin="round"/>
    <path d="M11.334 2.66675H11.3407" stroke="#4A5565" stroke-width="1.33333" stroke-linecap="round" stroke-linejoin="round"/>
</svg>