<svg xmlns="http://www.w3.org/2000/svg" 
viewBox="0 0 13 13" fill="none"
> 
    <g clip-path="url(#clip0_388_815)"> 
    <path d="M8.9375 5.28125C8.9375 5.17351 8.9803 5.07017 9.05649 4.99399C9.13267 4.9178 9.23601 4.875 9.34375 4.875H10.1562C10.264 4.875 10.3673 4.9178 10.4435 4.99399C10.5197 5.07017 10.5625 5.17351 10.5625 5.28125V6.09375C10.5625 6.20149 10.5197 6.30483 10.4435 6.38101C10.3673 6.4572 10.264 6.5 10.1562 6.5H9.34375C9.23601 6.5 9.13267 6.4572 9.05649 6.38101C8.9803 6.30483 8.9375 6.20149 8.9375 6.09375V5.28125Z" fill="currentColor"/> 
    <path d="M2.84375 0C2.95149 0 3.05483 0.0428012 3.13101 0.118988C3.2072 0.195175 3.25 0.298506 3.25 0.40625V0.8125H9.75V0.40625C9.75 0.298506 9.7928 0.195175 9.86899 0.118988C9.94517 0.0428012 10.0485 0 10.1562 0C10.264 0 10.3673 0.0428012 10.4435 0.118988C10.5197 0.195175 10.5625 0.298506 10.5625 0.40625V0.8125H11.375C11.806 0.8125 12.2193 0.983705 12.524 1.28845C12.8288 1.5932 13 2.00652 13 2.4375V11.375C13 11.806 12.8288 12.2193 12.524 12.524C12.2193 12.8288 11.806 13 11.375 13H1.625C1.19402 13 0.780698 12.8288 0.475951 12.524C0.171205 12.2193 0 11.806 0 11.375V2.4375C0 2.00652 0.171205 1.5932 0.475951 1.28845C0.780698 0.983705 1.19402 0.8125 1.625 0.8125H2.4375V0.40625C2.4375 0.298506 2.4803 0.195175 2.55649 0.118988C2.63267 0.0428012 2.73601 0 2.84375 0ZM0.8125 3.25V11.375C0.8125 11.5905 0.898102 11.7972 1.05048 11.9495C1.20285 12.1019 1.40951 12.1875 1.625 12.1875H11.375C11.5905 12.1875 11.7972 12.1019 11.9495 11.9495C12.1019 11.7972 12.1875 11.5905 12.1875 11.375V3.25H0.8125Z" fill="currentColor"/> 
    </g> 
    <defs> <clipPath id="clip0_388_815"> 
    <rect width="13" height="13" fill="currentColor"/> 
    </clipPath> </defs> 
</svg>