<svg xmlns="http://www.w3.org/2000/svg" 
    viewBox="0 0 17 17" fill="none"
> 
    <path d="M0.833344 14.1666C0.833344 14.6086 1.00894 15.0325 1.3215 15.3451C1.63406 15.6577 2.05798 15.8333 2.50001 15.8333H10.8333C11.0974 15.8339 11.359 15.7822 11.603 15.6813C11.847 15.5803 12.0686 15.432 12.255 15.2449L15.245 12.2549C15.4321 12.0685 15.5804 11.8469 15.6814 11.6029C15.7823 11.3589 15.834 11.0973 15.8333 10.8333V2.49992C15.8333 2.05789 15.6577 1.63397 15.3452 1.32141C15.0326 1.00885 14.6087 0.833252 14.1667 0.833252H2.50001C2.05798 0.833252 1.63406 1.00885 1.3215 1.32141C1.00894 1.63397 0.833344 2.05789 0.833344 2.49992V14.1666Z" stroke="currentColor" stroke-width="1.66667" stroke-linecap="round" stroke-linejoin="round"/> 
</svg>