<svg xmlns="http://www.w3.org/2000/svg" 
  viewBox="0 0 14 14" 
  fill="none"
  >
  <path d="M8.16427 2.3335C8.37473 2.33349 8.58127 2.39042 8.76201 2.49825C8.94276 2.60608 9.09096 2.76079 9.19093 2.946L9.47443 3.471C9.5744 3.6562 9.72261 3.81091 9.90335 3.91874C10.0841 4.02657 10.2906 4.0835 10.5011 4.0835H11.666C11.9754 4.0835 12.2722 4.20641 12.491 4.4252C12.7098 4.644 12.8327 4.94074 12.8327 5.25016V10.5002C12.8327 10.8096 12.7098 11.1063 12.491 11.3251C12.2722 11.5439 11.9754 11.6668 11.666 11.6668H2.33268C2.02326 11.6668 1.72652 11.5439 1.50772 11.3251C1.28893 11.1063 1.16602 10.8096 1.16602 10.5002V5.25016C1.16602 4.94074 1.28893 4.644 1.50772 4.4252C1.72652 4.20641 2.02326 4.0835 2.33268 4.0835H3.4976C3.70784 4.08351 3.91419 4.0267 4.0948 3.91909C4.27542 3.81148 4.42361 3.65706 4.52368 3.47216L4.80893 2.94483C4.90901 2.75993 5.05719 2.60551 5.23781 2.4979C5.41843 2.39029 5.62477 2.33348 5.83502 2.3335H8.16427Z" stroke="#1E2939" stroke-width="1.02083" stroke-linecap="round" stroke-linejoin="round"/>
  <path d="M7 9.33337C7.9665 9.33337 8.75 8.54987 8.75 7.58337C8.75 6.61688 7.9665 5.83337 7 5.83337C6.0335 5.83337 5.25 6.61688 5.25 7.58337C5.25 8.54987 6.0335 9.33337 7 9.33337Z" stroke="#1E2939" stroke-width="1.02083" stroke-linecap="round" stroke-linejoin="round"/>
</svg>