<svg xmlns="http://www.w3.org/2000/svg" 
    viewBox="0 0 12 12" 
    fill="none"
    >
    <path fill-rule="evenodd" clip-rule="evenodd" d="M10.5301 0.244005C10.8555 -0.0813835 11.3834 -0.0812864 11.7088 0.244005C12.0338 0.569352 12.0338 1.09639 11.7088 1.42174L7.15416 5.97545L11.7088 10.5301C12.0341 10.8556 12.0342 11.3835 11.7088 11.7088C11.3835 12.0342 10.8556 12.0341 10.5301 11.7088L5.97545 7.15416L1.42174 11.7088C1.09639 12.0338 0.569351 12.0338 0.244004 11.7088C-0.0812866 11.3834 -0.0813828 10.8555 0.244004 10.5301L4.79772 5.97545L0.244004 1.42174C-0.0812866 1.09629 -0.0813828 0.569393 0.244004 0.244005C0.569393 -0.0813835 1.09629 -0.0812864 1.42174 0.244005L5.97545 4.79772L10.5301 0.244005Z" fill="#4A5565"/>
</svg>