<svg xmlns="http://www.w3.org/2000/svg" 

    viewBox="0 0 14 14" fill="none"
> 
    <path d="M9.37829 1.24689C9.70981 0.915372 10.1595 0.729126 10.6283 0.729126C11.0971 0.729126 11.5468 0.915372 11.8783 1.24689C12.2098 1.57841 12.3961 2.02805 12.3961 2.49689C12.3961 2.96573 12.2098 3.41537 11.8783 3.74689L4.36746 11.2586C4.16958 11.4563 3.92513 11.601 3.65663 11.6794L1.26246 12.3794C1.19075 12.4003 1.11474 12.4016 1.04238 12.383C0.970026 12.3645 0.903982 12.3268 0.851165 12.274C0.798348 12.2212 0.7607 12.1552 0.742162 12.0828C0.723624 12.0104 0.724878 11.9344 0.745792 11.8627L1.44579 9.46856C1.52456 9.20027 1.66957 8.95611 1.86746 8.75856L9.37829 1.24689Z" stroke="currentColor" stroke-width="1.45833" stroke-linecap="round" stroke-linejoin="round"/> 
</svg>