<svg xmlns="http://www.w3.org/2000/svg" 
    viewBox="0 0 20 20" 
    fill="none"
    >
    <path fill-rule="evenodd" clip-rule="evenodd" d="M14.3063 3.34814C14.9271 3.34832 15.5236 3.59563 15.9625 4.03467C16.4012 4.47362 16.648 5.06935 16.6481 5.68994C16.648 6.31072 16.4004 6.90719 15.9615 7.34619L15.9606 7.34521L7.95373 15.355L7.95275 15.356C7.73845 15.5696 7.47464 15.7278 7.18517 15.8159H7.1842L4.57287 16.6079H4.57092C4.40678 16.6572 4.23224 16.6614 4.06603 16.6196C3.89974 16.5778 3.74793 16.4918 3.62658 16.3706C3.50526 16.2494 3.41865 16.0974 3.37658 15.9312C3.33472 15.7651 3.3383 15.5903 3.38732 15.4263L3.3883 15.4243L4.18127 12.813V12.811C4.27013 12.5215 4.42882 12.2574 4.64318 12.0435L12.651 4.03467V4.03369C13.09 3.59513 13.6857 3.34816 14.3063 3.34814ZM5.56213 12.9634C5.49841 13.0269 5.4509 13.1059 5.42443 13.1919L5.42345 13.1909L4.82189 15.1733L6.80627 14.5718C6.89221 14.5456 6.97114 14.4985 7.03478 14.4351L13.274 8.19482L11.8014 6.72217L5.56213 12.9634ZM14.3063 4.64893C14.0303 4.64894 13.7652 4.75864 13.5699 4.95361L12.7213 5.80225L14.194 7.2749L15.0426 6.42627L15.1119 6.3501C15.2635 6.16488 15.3473 5.93141 15.3473 5.68994C15.3472 5.41394 15.2377 5.14881 15.0426 4.95361C14.8474 4.75846 14.5823 4.64906 14.3063 4.64893Z" fill="currentColor"/>
  </svg>