<svg xmlns="http://www.w3.org/2000/svg" 
    viewBox="0 0 14 14" 
    fill="none"
> 
    <path d="M7.00033 9.91667C7.32249 9.91667 7.58366 9.6555 7.58366 9.33333C7.58366 9.01117 7.32249 8.75 7.00033 8.75C6.67816 8.75 6.41699 9.01117 6.41699 9.33333C6.41699 9.6555 6.67816 9.91667 7.00033 9.91667Z" stroke="currentColor" stroke-width="1.02083" stroke-linecap="round" stroke-linejoin="round"/> 
    <path d="M11.0833 5.8335H2.91667C2.27233 5.8335 1.75 6.35583 1.75 7.00016V11.6668C1.75 12.3112 2.27233 12.8335 2.91667 12.8335H11.0833C11.7277 12.8335 12.25 12.3112 12.25 11.6668V7.00016C12.25 6.35583 11.7277 5.8335 11.0833 5.8335Z" stroke="currentColor" stroke-width="1.02083" stroke-linecap="round" stroke-linejoin="round"/> 
    <path d="M4.08301 5.83317V4.08317C4.08301 3.30962 4.3903 2.56776 4.93728 2.02078C5.48426 1.47379 6.22613 1.1665 6.99967 1.1665C7.77322 1.1665 8.51509 1.47379 9.06207 2.02078C9.60905 2.56776 9.91634 3.30962 9.91634 4.08317V5.83317" stroke="currentColor" stroke-width="1.02083" stroke-linecap="round" stroke-linejoin="round"/> 
</svg>
