<svg xmlns="http://www.w3.org/2000/svg" 
    viewBox="0 0 16 16" 
    fill="none"
  >
    <path fill-rule="evenodd" clip-rule="evenodd" d="M6.90168 1.60877C8.44749 1.36525 10.0306 1.65886 11.3861 2.44081C11.6729 2.60641 11.7712 2.97318 11.6058 3.26014C11.4401 3.54681 11.0733 3.64627 10.7864 3.48084C9.6687 2.83596 8.36391 2.59356 7.08918 2.79432C5.81443 2.99519 4.64687 3.62706 3.78156 4.58436C2.91639 5.54166 2.4047 6.76675 2.33332 8.05506C2.26207 9.34331 2.63483 10.6175 3.38898 11.6644C4.14326 12.7114 5.2341 13.4686 6.47883 13.809C7.72347 14.1493 9.04774 14.0529 10.2298 13.5355C11.4118 13.0181 12.3806 12.1104 12.9749 10.9652C13.5692 9.81989 13.753 8.50494 13.4954 7.24061C13.4293 6.91607 13.6388 6.59896 13.9632 6.5326C14.2879 6.46644 14.605 6.67665 14.6712 7.00135C14.9835 8.53456 14.761 10.1291 14.0403 11.518C13.3196 12.9068 12.1438 14.0067 10.7103 14.6342C9.27685 15.2615 7.67171 15.3789 6.16242 14.9662C4.65295 14.5534 3.33007 13.6353 2.41535 12.3656C1.50082 11.096 1.04865 9.55093 1.13508 7.98866C1.22164 6.42635 1.84181 4.94057 2.89093 3.77967C3.9402 2.61886 5.35599 1.85243 6.90168 1.60877ZM13.7845 2.95155C14.0188 2.71738 14.3989 2.71727 14.6331 2.95155C14.8669 3.18575 14.8669 3.565 14.6331 3.7992L8.39093 10.0414C8.15667 10.2756 7.77662 10.2755 7.5423 10.0414L5.67023 8.16834C5.43594 7.93403 5.43593 7.555 5.67023 7.32069C5.90455 7.08654 6.28362 7.08644 6.51789 7.32069L7.96613 8.76795L13.7845 2.95155Z" fill="#7C4DFF"/>
  </svg>