 <svg xmlns="http://www.w3.org/2000/svg" 
    viewBox="0 0 12 14" 
    fill="none"
    >
    <path d="M10.7004 2.667L8.43806 0.404688C8.17731 0.143938 7.83038 0 7.46113 0H3.22613C2.464 0 1.84363 0.619938 1.84363 1.3825V1.84625H1.37988C0.619062 1.84625 0 2.46531 0 3.22613V11.6576C0 12.4184 0.619062 13.0375 1.37988 13.0375H7.882C8.64281 13.0375 9.26188 12.4184 9.26188 11.6576V11.1926H9.723C10.4847 11.1926 11.1046 10.5726 11.1046 9.81137V3.64306C11.1046 3.27994 10.9572 2.92381 10.7004 2.667ZM9.75888 2.83938H8.855C8.5295 2.83938 8.26438 2.57469 8.26438 2.24875V1.34488L9.75888 2.83938ZM8.47438 11.6576C8.47438 11.9844 8.20881 12.25 7.882 12.25H1.37988C1.0535 12.25 0.7875 11.9844 0.7875 11.6576V3.22613C0.7875 2.89931 1.05306 2.63375 1.37988 2.63375H1.84406V9.81181C1.84406 10.5731 2.464 11.1926 3.22525 11.1926H8.47438V11.6576ZM10.3171 9.81137C10.3171 10.1391 10.0511 10.4051 9.72344 10.4051H3.22525C2.898 10.4051 2.632 10.1391 2.632 9.81181V1.3825C2.632 1.05438 2.89844 0.7875 3.22656 0.7875H7.46156C7.46681 0.7875 7.47163 0.790563 7.47688 0.790563V2.24875C7.47688 3.00869 8.09506 3.62688 8.855 3.62688H10.3136C10.3136 3.63256 10.3167 3.63738 10.3167 3.64306V9.81137H10.3171Z" fill="#7C4DFF"/>
</svg>