<svg xmlns="http://www.w3.org/2000/svg" 
  viewBox="0 0 46 46" 
  fill="none"
  >
    <path d="M9.65913 41.2058L0.626915 25.4511C-0.208972 23.9916 -0.208972 22.1935 0.626915 20.7341L9.65913 4.99108C10.4989 3.52771 12.0507 2.62866 13.7225 2.62866H31.7753C33.4509 2.62866 35.0066 3.52771 35.8386 4.99108L44.8747 20.7418C45.7106 22.2013 45.7106 23.9994 44.8747 25.4589L35.8425 41.2136C35.0028 42.6769 33.4509 43.576 31.7792 43.576H13.7341C12.0507 43.5682 10.5028 42.6652 9.65913 41.2058Z" fill="white"/>
    <path d="M10.4301 40.1353L1.93584 25.3186C1.14639 23.9447 1.14639 22.2517 1.93584 20.8818L10.4301 6.06118C11.2235 4.68342 12.6824 3.83887 14.2574 3.83887H31.246C32.8211 3.83887 34.2839 4.68342 35.0733 6.06118L43.5754 20.874C44.3648 22.2478 44.3648 23.9408 43.5754 25.3108L35.0772 40.1392C34.2839 41.5169 32.8249 42.3615 31.2499 42.3615H14.2652C12.6824 42.3615 11.2235 41.513 10.4301 40.1353Z" fill="#7C4DFF"/>
    <path d="M14.1952 20.2473H31.6753C31.8958 20.2473 32.07 20.0682 32.07 19.8503V16.5538C32.07 14.3626 30.3015 12.584 28.1227 12.584H17.6277C14.5744 12.5801 12.1016 15.0671 12.1016 18.1378C12.0977 19.3093 13.0342 20.2473 14.1952 20.2473ZM15.9095 34.811H26.3542C29.5082 34.811 32.07 32.2345 32.07 29.0625C32.07 28.0039 31.2186 27.1438 30.1622 27.1438H12.4808C12.2641 27.1438 12.1016 27.3189 12.1016 27.5252V30.9735C12.0977 33.0946 13.8082 34.811 15.9095 34.811Z" fill="#F7F7F7"/>
    <path d="M12.8743 19.8115L25.9118 32.9235C26.7747 33.7914 28.1718 33.7914 29.0347 32.9235L31.2947 30.6506C32.1577 29.7827 32.1577 28.3777 31.2947 27.5098L18.2611 14.3978C17.3981 13.5298 16.0011 13.5298 15.1381 14.3978L12.8781 16.6707C12.0074 17.5386 12.0074 18.9475 12.8743 19.8115Z" fill="#F7F7F7"/>
    <path opacity="0.3" d="M26.1252 33.1452L18.4667 27.1438H20.1617L26.1252 33.1452ZM18.0449 14.1797L24.078 20.2473H26.1252L18.0449 14.1797Z" fill="#444444"/>
  </svg>