<svg xmlns="http://www.w3.org/2000/svg" 
    viewBox="0 0 24 24" 
    fill="none"
>
    <path d="M11.6667 1.83398C12.3296 1.83401 12.9655 2.09681 13.4343 2.56543C13.903 3.03425 14.1667 3.67104 14.1667 4.33398V5.16699H16.6667C18.0474 5.16704 19.1667 6.28631 19.1667 7.66699V16C19.1667 17.3807 18.0474 18.5 16.6667 18.5H3.33374C1.95303 18.5 0.83374 17.3807 0.83374 16V7.66699C0.83374 6.28628 1.95303 5.16699 3.33374 5.16699H5.83374V4.33398C5.83374 3.671 6.09642 3.03426 6.56519 2.56543C7.03403 2.09659 7.6707 1.83398 8.33374 1.83398H11.6667ZM17.4998 13.2939C15.1974 14.52 12.6233 15.1689 9.99976 15.1689C7.37604 15.1689 4.80204 14.5201 2.49976 13.2939V16C2.49976 16.4602 2.8735 16.833 3.33374 16.833H16.6667C17.1269 16.833 17.4998 16.4602 17.4998 16V13.2939ZM3.33374 6.83301C2.8735 6.83301 2.49976 7.20675 2.49976 7.66699V11.375C4.75204 12.7637 7.34795 13.5019 9.99976 13.502C12.6512 13.5019 15.2476 12.7643 17.4998 11.376V7.66699C17.4998 7.20678 17.1269 6.83305 16.6667 6.83301H13.3503C13.3448 6.83312 13.3393 6.83398 13.3337 6.83398C13.3282 6.83398 13.3226 6.83312 13.3171 6.83301H6.68335C6.67783 6.83312 6.6723 6.83398 6.66675 6.83398C6.66123 6.83398 6.65564 6.83312 6.65015 6.83301H3.33374ZM10.0085 10.167C10.4686 10.1672 10.8416 10.5399 10.8416 11C10.8416 11.4601 10.4686 11.8328 10.0085 11.833H9.99976C9.53964 11.8329 9.16675 11.4602 9.16675 11C9.16675 10.5398 9.53964 10.1671 9.99976 10.167H10.0085ZM8.33374 3.5C8.11273 3.5 7.90018 3.58786 7.7439 3.74414C7.58769 3.90041 7.49976 4.11303 7.49976 4.33398V5.16699H12.4998V4.33398C12.4998 4.11307 12.4118 3.9004 12.2556 3.74414C12.0994 3.58808 11.8876 3.50002 11.6667 3.5H8.33374Z" fill="currentColor"/>
</svg>
