<svg xmlns="http://www.w3.org/2000/svg" 
    viewBox="0 0 24 24" 
    fill="none"
  >
    <path d="M8.33301 9.16675V14.1667" stroke="currentColor" stroke-width="1.45833" stroke-linecap="round" stroke-linejoin="round"/>
    <path d="M11.667 9.16675V14.1667" stroke="currentColor" stroke-width="1.45833" stroke-linecap="round" stroke-linejoin="round"/>
    <path d="M15.8337 5V16.6667C15.8337 17.1087 15.6581 17.5326 15.3455 17.8452C15.0329 18.1577 14.609 18.3333 14.167 18.3333H5.83366C5.39163 18.3333 4.96771 18.1577 4.65515 17.8452C4.34259 17.5326 4.16699 17.1087 4.16699 16.6667V5" stroke="currentColor" stroke-width="1.45833" stroke-linecap="round" stroke-linejoin="round"/>
    <path d="M2.5 5H17.5" stroke="currentColor" stroke-width="1.45833" stroke-linecap="round" stroke-linejoin="round"/>
    <path d="M6.66699 5.00008V3.33341C6.66699 2.89139 6.84259 2.46746 7.15515 2.1549C7.46771 1.84234 7.89163 1.66675 8.33366 1.66675H11.667C12.109 1.66675 12.5329 1.84234 12.8455 2.1549C13.1581 2.46746 13.3337 2.89139 13.3337 3.33341V5.00008" stroke="currentColor" stroke-width="1.45833" stroke-linecap="round" stroke-linejoin="round"/>
</svg>